<svg xmlns="http://www.w3.org/2000/svg" viewBox="0 0 235.7 37.68"><defs><style>.cls-1{fill:#fff;}.cls-2{fill:#21d0f0;}.cls-3{fill:#069db8;}.cls-4{fill:#03849d;}.cls-5{fill:#087887;}.cls-6{fill:#0ab9d9;}.cls-7{fill:#097d89;}</style></defs><title>logo</title><g id="Capa_2" data-name="Capa 2"><g id="Capa_1-2" data-name="Capa 1"><path class="cls-1" d="M81,34.54V14.71L94,27.49V15.43h3.43V35.25l-13-12.72v12Z" transform="translate(0 -7.16)"/><path class="cls-1" d="M101.44,34.54V15.43h12.17v3.1h-8.75v4.55h8.2v3.1h-8.2v5.26h8.94v3.1Z" transform="translate(0 -7.16)"/><path class="cls-1" d="M120.72,34.54v-16h-5.18v-3.1h13.79v3.1h-5.18v16Z" transform="translate(0 -7.16)"/><path class="cls-1" d="M147.76,18.53l-2.33,2a6.66,6.66,0,0,0-5.24-2.33,6.61,6.61,0,0,0-6.75,6.8,6.84,6.84,0,0,0,12,4.39l2.3,2a9.91,9.91,0,0,1-7.6,3.48,10.13,10.13,0,0,1-7.21-2.8A9.47,9.47,0,0,1,130,25,9.48,9.48,0,0,1,133,17.92a10,10,0,0,1,7.21-2.82A9.66,9.66,0,0,1,147.76,18.53Z" transform="translate(0 -7.16)"/><path class="cls-1" d="M152.2,32.07a9.46,9.46,0,0,1-2.93-7,9.46,9.46,0,0,1,2.93-7,10.33,10.33,0,0,1,14.31,0,9.38,9.38,0,0,1,3,7,9.46,9.46,0,0,1-2.93,7,10.44,10.44,0,0,1-14.34,0Zm2.36-2.19a6.85,6.85,0,0,0,9.57,0A6.68,6.68,0,0,0,166.07,25a6.68,6.68,0,0,0-1.95-4.85,6.79,6.79,0,0,0-9.57,0A6.66,6.66,0,0,0,152.64,25,6.57,6.57,0,0,0,154.56,29.88Z" transform="translate(0 -7.16)"/><path class="cls-1" d="M172.47,34.54V14.8l9.76,11.82L192,14.8V34.54h-3.37V23.71l-6.39,7.79-6.39-7.79V34.54Z" transform="translate(0 -7.16)"/><path class="cls-1" d="M196.16,34.54V15.43h3.43V34.54Z" transform="translate(0 -7.16)"/><path class="cls-1" d="M220.45,18.53l-2.33,2a6.66,6.66,0,0,0-5.24-2.33,6.61,6.61,0,0,0-6.75,6.8,6.84,6.84,0,0,0,12,4.39l2.3,2a9.91,9.91,0,0,1-7.6,3.48,10.13,10.13,0,0,1-7.21-2.8A9.47,9.47,0,0,1,202.74,25a9.48,9.48,0,0,1,2.93-7.07,10,10,0,0,1,7.21-2.82A9.66,9.66,0,0,1,220.45,18.53Z" transform="translate(0 -7.16)"/><path class="cls-1" d="M224.24,28.89A5,5,0,0,0,229,31.8c2.39,0,3.24-1.26,3.24-2.5a2.11,2.11,0,0,0-1.1-1.95,10.71,10.71,0,0,0-2.8-1.32,12.72,12.72,0,0,1-3.87-2,4.56,4.56,0,0,1-1.62-3.76,4.67,4.67,0,0,1,1.7-3.73,6.35,6.35,0,0,1,4.22-1.43,6.56,6.56,0,0,1,5.9,3.1l-2.44,1.67a3.79,3.79,0,0,0-3.4-1.7c-1.51,0-2.6.85-2.6,2a2.08,2.08,0,0,0,.79,1.65c.3.22,1.07.55,1.43.74l1,.38,1.12.44a11.06,11.06,0,0,1,3.89,2.39,4.84,4.84,0,0,1,1.21,3.43c0,3.37-2.33,5.65-6.69,5.65-3.54,0-6.14-1.65-7.35-4.36Z" transform="translate(0 -7.16)"/><ellipse class="cls-2" cx="30.9" cy="18.29" rx="26.11" ry="18.29"/><path class="cls-2" d="M11.23,32" transform="translate(0 -7.16)"/><path class="cls-2" d="M11.18,33.68S5.55,43.52,1,44.41s15.42.28,18.56-5.2" transform="translate(0 -7.16)"/><path class="cls-3" d="M.29,44.64s17.68-6.58,18.15-7l-1.09,3.56a19.37,19.37,0,0,1-5.24,2s-8.76,1.5-10,1.53C-1.06,44.59.29,44.64.29,44.64Z" transform="translate(0 -7.16)"/><path class="cls-4" d="M.78,45" transform="translate(0 -7.16)"/><polygon class="cls-3" points="30.14 3.44 21.21 24.64 41.36 8.99 27.87 16.76 30.26 4.03 30.14 3.44"/><polygon class="cls-5" points="29.83 22.72 24.3 27.08 36.77 23.86 28.42 25.46 29.9 22.84 29.83 22.72"/><polygon class="cls-6" points="14.21 25.59 35.42 34.52 19.76 14.37 27.53 27.86 14.8 25.47 14.21 25.59"/><path class="cls-7" d="M12.3,41.9l-2.78,2S2,45.05.37,44.8,11.12,43.3,12.3,41.9Z" transform="translate(0 -7.16)"/><path class="cls-4" d="M.6,0" transform="translate(0 -7.16)"/><path class="cls-1" d="M19.76,31.49V19.62l7.67,6.93V20.06h2.49V31.93L22.25,25v6.47Z" transform="translate(0 -7.16)"/><path class="cls-1" d="M42.38,22l-1.72,1.46a3.71,3.71,0,0,0-2.9-1.29,3.54,3.54,0,0,0-2.57,1,3.44,3.44,0,0,0-1,2.57,3.48,3.48,0,0,0,1,2.57,3.6,3.6,0,0,0,2.59,1,3.73,3.73,0,0,0,2.92-1.31l1.72,1.46a6,6,0,0,1-4.64,2.15A6.15,6.15,0,0,1,33.4,30a5.54,5.54,0,0,1-1.79-4.21,5.54,5.54,0,0,1,1.79-4.21,6.26,6.26,0,0,1,9,.44Z" transform="translate(0 -7.16)"/></g></g></svg>