<svg xmlns="http://www.w3.org/2000/svg" viewBox="0 0 180 272.36"><defs><style>.cls-1{fill:#ebebeb;}.cls-2{fill:#21d0f0;}.cls-3{fill:#069db8;}.cls-4{fill:#03849d;}.cls-5{fill:#087887;}.cls-6{fill:#0ab9d9;}.cls-7{fill:#097d89;}.cls-8{fill:#fff;}</style></defs><title>no_cover_color</title><g id="Capa_2" data-name="Capa 2"><g id="Capa_1-2" data-name="Capa 1"><rect class="cls-1" width="180" height="272.36"/><ellipse class="cls-2" cx="93.87" cy="135.25" rx="62.98" ry="44.12"/><path class="cls-2" d="M46.43,151"/><path class="cls-2" d="M46.3,155.09S32.74,178.82,21.66,181s37.18.68,44.76-12.55"/><path class="cls-3" d="M20,181.52s42.63-15.86,43.78-16.84l-2.64,8.59a46.71,46.71,0,0,1-12.64,4.86s-21.12,3.62-24.22,3.69C16.79,181.4,20,181.52,20,181.52Z"/><path class="cls-4" d="M21.23,182.36"/><polygon class="cls-3" points="92.04 99.43 70.49 150.57 119.09 112.81 86.55 131.55 92.32 100.84 92.04 99.43"/><polygon class="cls-5" points="91.28 145.93 77.95 156.44 108.01 148.68 87.88 152.53 91.45 146.22 91.28 145.93"/><polygon class="cls-6" points="53.62 152.84 104.76 174.39 67.01 125.79 85.74 158.33 55.03 152.56 53.62 152.84"/><path class="cls-7" d="M49,174.9l-6.71,4.9s-18.16,2.71-22.08,2.11S46.15,178.3,49,174.9Z"/><path class="cls-4" d="M20.78,73.86"/><path class="cls-8" d="M67,149.8V121.19L85.5,137.9V122.25h6v28.61L73,134.19V149.8Z"/><path class="cls-8" d="M121.54,127l-4.15,3.52a8.94,8.94,0,0,0-7-3.12,8.53,8.53,0,0,0-6.21,2.49,8.29,8.29,0,0,0-2.53,6.2,8.4,8.4,0,0,0,2.49,6.21,8.68,8.68,0,0,0,6.24,2.45,9,9,0,0,0,7-3.16l4.15,3.52a14.59,14.59,0,0,1-11.18,5.18,14.82,14.82,0,0,1-10.51-4,14.13,14.13,0,0,1,0-20.31A15.09,15.09,0,0,1,121.54,127Z"/></g></g></svg>